<svg xmlns="http://www.w3.org/2000/svg" viewBox="0 0 480 360" width="480" height="360" role="img" aria-label="Core Self">
  <title>Naksha · Core Self</title>
  <defs>
  <radialGradient id="a1" cx="50%" cy="50%" r="50%">
    <stop offset="0%" stop-color="#5B8CFF" stop-opacity="0.22"></stop>
    <stop offset="60%" stop-color="#5B8CFF" stop-opacity="0.055"></stop>
    <stop offset="100%" stop-color="#5B8CFF" stop-opacity="0"></stop>
  </radialGradient></defs>
  <rect width="480" height="360" fill="#0B1220"></rect><g><circle cx="231.19" cy="264.75" r="0.66" fill="#F2EBDA" opacity="0.239"></circle><circle cx="371.96" cy="110.05" r="0.78" fill="#F2EBDA" opacity="0.221"></circle><circle cx="433.50" cy="90.94" r="1.17" fill="#F2EBDA" opacity="0.332"></circle><circle cx="228.81" cy="349.27" r="0.43" fill="#F2EBDA" opacity="0.372"></circle><circle cx="243.20" cy="260.52" r="1.41" fill="#F2EBDA" opacity="0.252"></circle><circle cx="177.70" cy="15.92" r="1.35" fill="#F2EBDA" opacity="0.192"></circle><circle cx="99.62" cy="244.58" r="1.22" fill="#F2EBDA" opacity="0.265"></circle><circle cx="360.72" cy="63.29" r="1.55" fill="#F2EBDA" opacity="0.374"></circle><circle cx="158.66" cy="177.26" r="0.97" fill="#F2EBDA" opacity="0.184"></circle><circle cx="342.80" cy="216.90" r="1.39" fill="#F2EBDA" opacity="0.305"></circle><circle cx="247.42" cy="9.57" r="0.64" fill="#F2EBDA" opacity="0.281"></circle><circle cx="475.17" cy="124.64" r="0.95" fill="#F2EBDA" opacity="0.283"></circle><circle cx="475.85" cy="13.87" r="1.57" fill="#F2EBDA" opacity="0.242"></circle><circle cx="410.37" cy="193.86" r="1.24" fill="#F2EBDA" opacity="0.273"></circle><circle cx="48.92" cy="102.59" r="0.77" fill="#F2EBDA" opacity="0.155"></circle><circle cx="80.77" cy="216.28" r="0.83" fill="#F2EBDA" opacity="0.251"></circle><circle cx="118.04" cy="73.04" r="1.44" fill="#F2EBDA" opacity="0.171"></circle><circle cx="121.68" cy="43.26" r="0.70" fill="#F2EBDA" opacity="0.378"></circle><circle cx="367.45" cy="89.48" r="1.31" fill="#F2EBDA" opacity="0.192"></circle><circle cx="185.83" cy="131.29" r="1.13" fill="#F2EBDA" opacity="0.309"></circle><circle cx="165.69" cy="57.48" r="1.06" fill="#F2EBDA" opacity="0.113"></circle><circle cx="114.85" cy="274.84" r="1.45" fill="#F2EBDA" opacity="0.277"></circle><circle cx="130.49" cy="52.20" r="1.03" fill="#F2EBDA" opacity="0.172"></circle><circle cx="338.09" cy="63.27" r="0.58" fill="#F2EBDA" opacity="0.230"></circle><circle cx="285.23" cy="87.94" r="1.51" fill="#F2EBDA" opacity="0.234"></circle><circle cx="289.49" cy="19.17" r="1.57" fill="#F2EBDA" opacity="0.318"></circle><circle cx="65.38" cy="21.21" r="1.51" fill="#F2EBDA" opacity="0.236"></circle><circle cx="188.58" cy="124.83" r="1.19" fill="#F2EBDA" opacity="0.245"></circle><circle cx="82.06" cy="114.37" r="0.54" fill="#F2EBDA" opacity="0.187"></circle><circle cx="45.42" cy="42.59" r="0.73" fill="#F2EBDA" opacity="0.311"></circle><circle cx="454.66" cy="50.79" r="1.31" fill="#F2EBDA" opacity="0.206"></circle><circle cx="382.33" cy="311.75" r="0.73" fill="#F2EBDA" opacity="0.154"></circle></g>
  <circle cx="240" cy="230" r="180" fill="url(#a1)"></circle>
  <line x1="40" y1="230" x2="440" y2="230" stroke="#5B8CFF" stroke-width="0.4" opacity="0.28"></line>
  <circle cx="240" cy="230" r="18" fill="none" stroke="#5B8CFF" stroke-width="0.9" opacity="0.55"></circle><circle cx="240" cy="230" r="38" fill="none" stroke="#5B8CFF" stroke-width="0.5" opacity="0.47"></circle><circle cx="240" cy="230" r="62" fill="none" stroke="#5B8CFF" stroke-width="0.5" opacity="0.39"></circle><circle cx="240" cy="230" r="90" fill="none" stroke="#5B8CFF" stroke-width="0.5" opacity="0.31"></circle><circle cx="240" cy="230" r="122" fill="none" stroke="#5B8CFF" stroke-width="0.5" opacity="0.23"></circle>
  <circle cx="240" cy="230" r="6" fill="#5B8CFF" opacity="0.95"></circle>
  <circle cx="240" cy="230" r="14" fill="none" stroke="#5B8CFF" stroke-width="0.6" opacity="0.7"></circle>
  <line x1="240" y1="60" x2="240" y2="340" stroke="#5B8CFF" stroke-width="0.3" opacity="0.22"></line>
  <g transform="translate(348, 96)">
    <circle r="12" fill="#D4B896" opacity="0.08"></circle>
    <circle r="2.4" fill="#D4B896"></circle>
    <line x1="-6" y1="0" x2="6" y2="0" stroke="#D4B896" stroke-width="0.4" opacity="0.55"></line>
    <line x1="0" y1="-6" x2="0" y2="6" stroke="#D4B896" stroke-width="0.4" opacity="0.55"></line>
  </g>
  <g opacity="0.35"><ellipse cx="240" cy="245.30" rx="18" ry="3.24" fill="none" stroke="#5B8CFF" stroke-width="0.4" opacity="0.4"></ellipse><ellipse cx="240" cy="262.30" rx="38" ry="6.84" fill="none" stroke="#5B8CFF" stroke-width="0.4" opacity="0.4"></ellipse><ellipse cx="240" cy="282.70" rx="62" ry="11.16" fill="none" stroke="#5B8CFF" stroke-width="0.4" opacity="0.4"></ellipse></g>
</svg>