<svg xmlns="http://www.w3.org/2000/svg" viewBox="0 0 480 360" width="480" height="360" role="img" aria-label="Natural Gifts">
  <title>Naksha · Natural Gifts</title>
  <defs>
  <radialGradient id="a2" cx="50%" cy="50%" r="50%">
    <stop offset="0%" stop-color="#D4B896" stop-opacity="0.16"></stop>
    <stop offset="60%" stop-color="#D4B896" stop-opacity="0.04"></stop>
    <stop offset="100%" stop-color="#D4B896" stop-opacity="0"></stop>
  </radialGradient></defs>
  <rect width="480" height="360" fill="#0B1220"></rect><g><circle cx="131.50" cy="111.76" r="0.88" fill="#F2EBDA" opacity="0.117"></circle><circle cx="38.57" cy="36.65" r="1.56" fill="#F2EBDA" opacity="0.247"></circle><circle cx="446.26" cy="338.27" r="1.51" fill="#F2EBDA" opacity="0.110"></circle><circle cx="156.83" cy="35.18" r="1.07" fill="#F2EBDA" opacity="0.300"></circle><circle cx="39.53" cy="201.77" r="1.45" fill="#F2EBDA" opacity="0.221"></circle><circle cx="61.26" cy="189.95" r="1.01" fill="#F2EBDA" opacity="0.133"></circle><circle cx="397.86" cy="315.12" r="0.93" fill="#F2EBDA" opacity="0.204"></circle><circle cx="141.75" cy="195.93" r="0.50" fill="#F2EBDA" opacity="0.345"></circle><circle cx="394.66" cy="72.53" r="1.43" fill="#F2EBDA" opacity="0.368"></circle><circle cx="470.69" cy="197.32" r="0.53" fill="#F2EBDA" opacity="0.180"></circle><circle cx="31.37" cy="118.75" r="1.20" fill="#F2EBDA" opacity="0.299"></circle><circle cx="450.02" cy="12.60" r="1.29" fill="#F2EBDA" opacity="0.365"></circle><circle cx="293.81" cy="101.41" r="1.20" fill="#F2EBDA" opacity="0.298"></circle><circle cx="178.79" cy="146.26" r="1.42" fill="#F2EBDA" opacity="0.374"></circle><circle cx="298.25" cy="281.27" r="1.21" fill="#F2EBDA" opacity="0.137"></circle><circle cx="440.47" cy="222.87" r="0.79" fill="#F2EBDA" opacity="0.304"></circle><circle cx="97.33" cy="159.22" r="0.63" fill="#F2EBDA" opacity="0.217"></circle><circle cx="117.09" cy="194.73" r="0.78" fill="#F2EBDA" opacity="0.296"></circle><circle cx="189.45" cy="6.71" r="0.49" fill="#F2EBDA" opacity="0.130"></circle><circle cx="440.14" cy="355.68" r="0.43" fill="#F2EBDA" opacity="0.160"></circle><circle cx="409.03" cy="102.36" r="1.04" fill="#F2EBDA" opacity="0.247"></circle><circle cx="190.46" cy="186.72" r="0.47" fill="#F2EBDA" opacity="0.231"></circle><circle cx="162.05" cy="205.58" r="0.65" fill="#F2EBDA" opacity="0.197"></circle><circle cx="8.51" cy="317.56" r="1.44" fill="#F2EBDA" opacity="0.168"></circle><circle cx="445.21" cy="319.98" r="0.45" fill="#F2EBDA" opacity="0.313"></circle><circle cx="237.40" cy="62.67" r="1.54" fill="#F2EBDA" opacity="0.323"></circle><circle cx="432.57" cy="313.12" r="1.16" fill="#F2EBDA" opacity="0.198"></circle><circle cx="295.84" cy="138.85" r="1.05" fill="#F2EBDA" opacity="0.101"></circle><circle cx="110.83" cy="127.97" r="0.44" fill="#F2EBDA" opacity="0.225"></circle><circle cx="349.66" cy="70.23" r="0.90" fill="#F2EBDA" opacity="0.360"></circle><circle cx="245.91" cy="214.36" r="1.56" fill="#F2EBDA" opacity="0.303"></circle><circle cx="80.13" cy="99.92" r="1.55" fill="#F2EBDA" opacity="0.203"></circle><circle cx="74.78" cy="88.20" r="0.61" fill="#F2EBDA" opacity="0.250"></circle><circle cx="96.70" cy="39.05" r="1.21" fill="#F2EBDA" opacity="0.376"></circle><circle cx="422.92" cy="235.90" r="0.74" fill="#F2EBDA" opacity="0.312"></circle><circle cx="169.90" cy="5.96" r="0.77" fill="#F2EBDA" opacity="0.297"></circle></g>
  <circle cx="245" cy="175" r="170" fill="url(#a2)"></circle>
  <g stroke="#D4B896" stroke-width="0.5" opacity="0.45"><line x1="130" y1="180" x2="220" y2="110"></line><line x1="220" y1="110" x2="320" y2="160"></line><line x1="220" y1="110" x2="200" y2="230"></line><line x1="320" y1="160" x2="360" y2="240"></line><line x1="200" y1="230" x2="360" y2="240"></line></g>
  <g><circle cx="130" cy="180" r="10.00" fill="#D4B896" opacity="0.06"></circle><circle cx="130" cy="180" r="4.50" fill="#D4B896" opacity="0.18"></circle><circle cx="130" cy="180" r="1.80" fill="#F2EBDA"></circle></g><g><circle cx="220" cy="110" r="14.00" fill="#D4B896" opacity="0.06"></circle><circle cx="220" cy="110" r="6.30" fill="#D4B896" opacity="0.18"></circle><circle cx="220" cy="110" r="2.52" fill="#F2EBDA"></circle><g stroke="#D4B896" stroke-width="0.4" opacity="0.55"><line x1="206" y1="110" x2="234" y2="110"></line><line x1="220" y1="96" x2="220" y2="124"></line></g></g><g><circle cx="320" cy="160" r="10.00" fill="#D4B896" opacity="0.06"></circle><circle cx="320" cy="160" r="4.50" fill="#D4B896" opacity="0.18"></circle><circle cx="320" cy="160" r="1.80" fill="#F2EBDA"></circle></g><g><circle cx="200" cy="230" r="8.50" fill="#D4B896" opacity="0.06"></circle><circle cx="200" cy="230" r="3.82" fill="#D4B896" opacity="0.18"></circle><circle cx="200" cy="230" r="1.53" fill="#F2EBDA"></circle></g><g><circle cx="360" cy="240" r="9.50" fill="#D4B896" opacity="0.06"></circle><circle cx="360" cy="240" r="4.27" fill="#D4B896" opacity="0.18"></circle><circle cx="360" cy="240" r="1.71" fill="#F2EBDA"></circle></g>
  <path d="M 70 290 Q 245 340 420 280" fill="none" stroke="#5B8CFF" stroke-width="0.5" opacity="0.28" stroke-dasharray="2 4"></path>
</svg>