<svg xmlns="http://www.w3.org/2000/svg" viewBox="0 0 64 64" width="64" height="64" role="img" aria-label="krittika nakshatra">
  <title>Naksha · krittika</title>
  <defs>
    <radialGradient id="bg-3" cx="50%" cy="50%" r="50%">
      <stop offset="0%" stop-color="#162238" stop-opacity="0.9"></stop>
      <stop offset="100%" stop-color="#0B1220" stop-opacity="1"></stop>
    </radialGradient>
  </defs>
  <circle cx="32" cy="32" r="31" fill="url(#bg-3)" stroke="#D4B896" stroke-opacity="0.22" stroke-width="0.8"></circle>
  <circle cx="32" cy="32" r="31" fill="none" stroke="#F2EBDA" stroke-opacity="0.04" stroke-width="0.4"></circle>
  <circle cx="30.2" cy="5.3" r="0.4" fill="#F2EBDA" opacity="0.22"></circle><circle cx="29.4" cy="26.3" r="0.4" fill="#F2EBDA" opacity="0.19"></circle><circle cx="21.5" cy="16.6" r="0.4" fill="#F2EBDA" opacity="0.22"></circle><circle cx="24.0" cy="28.5" r="0.4" fill="#F2EBDA" opacity="0.17"></circle><circle cx="19.2" cy="57.5" r="0.4" fill="#F2EBDA" opacity="0.12"></circle><circle cx="25.0" cy="28.7" r="0.4" fill="#F2EBDA" opacity="0.17"></circle>
  <circle cx="7" cy="8" r="0.9" fill="#F2EBDA" opacity="0.95"></circle><circle cx="12" cy="11" r="0.65" fill="#F2EBDA" opacity="0.75"></circle><circle cx="17" cy="8" r="0.65" fill="#F2EBDA" opacity="0.75"></circle><circle cx="14" cy="13" r="0.65" fill="#F2EBDA" opacity="0.75"></circle><circle cx="19" cy="12" r="0.65" fill="#F2EBDA" opacity="0.75"></circle><circle cx="9" cy="13" r="0.65" fill="#F2EBDA" opacity="0.75"></circle>
  
    <g stroke="#D4B896" stroke-width="1.1" fill="none" stroke-linecap="round" stroke-linejoin="round" opacity="0.9">
      <path d="M 22 36 L 42 36 L 44 40 L 26 40 Z"></path>
      <path d="M 26 40 L 26 50 L 38 50 L 38 40"></path>
      <line x1="22" y1="36" x2="20" y2="34"></line>
    </g>
</svg>