<svg xmlns="http://www.w3.org/2000/svg" viewBox="0 0 64 64" width="64" height="64" role="img" aria-label="rohini nakshatra">
  <title>Naksha · rohini</title>
  <defs>
    <radialGradient id="bg-4" cx="50%" cy="50%" r="50%">
      <stop offset="0%" stop-color="#162238" stop-opacity="0.9"></stop>
      <stop offset="100%" stop-color="#0B1220" stop-opacity="1"></stop>
    </radialGradient>
  </defs>
  <circle cx="32" cy="32" r="31" fill="url(#bg-4)" stroke="#D4B896" stroke-opacity="0.22" stroke-width="0.8"></circle>
  <circle cx="32" cy="32" r="31" fill="none" stroke="#F2EBDA" stroke-opacity="0.04" stroke-width="0.4"></circle>
  <circle cx="39.4" cy="34.3" r="0.4" fill="#F2EBDA" opacity="0.16"></circle><circle cx="45.5" cy="28.1" r="0.4" fill="#F2EBDA" opacity="0.19"></circle><circle cx="53.0" cy="23.2" r="0.4" fill="#F2EBDA" opacity="0.24"></circle><circle cx="33.3" cy="12.0" r="0.4" fill="#F2EBDA" opacity="0.25"></circle><circle cx="7.3" cy="10.0" r="0.4" fill="#F2EBDA" opacity="0.19"></circle><circle cx="25.6" cy="55.0" r="0.4" fill="#F2EBDA" opacity="0.13"></circle>
  <circle cx="8" cy="8" r="0.9" fill="#F2EBDA" opacity="0.95"></circle><circle cx="13" cy="11" r="0.65" fill="#F2EBDA" opacity="0.75"></circle><circle cx="18" cy="8" r="0.65" fill="#F2EBDA" opacity="0.75"></circle><circle cx="15" cy="13" r="0.65" fill="#F2EBDA" opacity="0.75"></circle><circle cx="20" cy="12" r="0.65" fill="#F2EBDA" opacity="0.75"></circle>
  
    <g stroke="#D4B896" stroke-width="1.1" fill="none" stroke-linecap="round" opacity="0.9">
      <path d="M 20 42 L 44 42 L 42 48 L 22 48 Z"></path>
      <circle cx="26" cy="51" r="2.5"></circle>
      <circle cx="38" cy="51" r="2.5"></circle>
      <line x1="32" y1="42" x2="32" y2="34"></line>
      <line x1="28" y1="34" x2="36" y2="34"></line>
    </g>
</svg>