<svg xmlns="http://www.w3.org/2000/svg" viewBox="0 0 64 64" width="64" height="64" role="img" aria-label="mrigashira nakshatra">
  <title>Naksha · mrigashira</title>
  <defs>
    <radialGradient id="bg-5" cx="50%" cy="50%" r="50%">
      <stop offset="0%" stop-color="#162238" stop-opacity="0.9"></stop>
      <stop offset="100%" stop-color="#0B1220" stop-opacity="1"></stop>
    </radialGradient>
  </defs>
  <circle cx="32" cy="32" r="31" fill="url(#bg-5)" stroke="#D4B896" stroke-opacity="0.22" stroke-width="0.8"></circle>
  <circle cx="32" cy="32" r="31" fill="none" stroke="#F2EBDA" stroke-opacity="0.04" stroke-width="0.4"></circle>
  <circle cx="36.6" cy="48.6" r="0.4" fill="#F2EBDA" opacity="0.11"></circle><circle cx="9.4" cy="15.8" r="0.4" fill="#F2EBDA" opacity="0.21"></circle><circle cx="44.2" cy="36.0" r="0.4" fill="#F2EBDA" opacity="0.16"></circle><circle cx="59.1" cy="10.3" r="0.4" fill="#F2EBDA" opacity="0.21"></circle><circle cx="35.2" cy="44.8" r="0.4" fill="#F2EBDA" opacity="0.21"></circle><circle cx="28.8" cy="33.7" r="0.4" fill="#F2EBDA" opacity="0.13"></circle>
  <circle cx="9" cy="8" r="0.9" fill="#F2EBDA" opacity="0.95"></circle><circle cx="15" cy="12" r="0.65" fill="#F2EBDA" opacity="0.75"></circle><circle cx="19" cy="8" r="0.65" fill="#F2EBDA" opacity="0.75"></circle>
  
    <g stroke="#D4B896" stroke-width="1.1" fill="none" stroke-linecap="round" stroke-linejoin="round" opacity="0.9">
      <ellipse cx="32" cy="44" rx="6" ry="7"></ellipse>
      <path d="M 28 38 Q 26 32 24 30 M 26 34 L 22 32"></path>
      <path d="M 36 38 Q 38 32 40 30 M 38 34 L 42 32"></path>
      <circle cx="30" cy="44" r="0.6" fill="#D4B896" stroke="none"></circle>
      <circle cx="34" cy="44" r="0.6" fill="#D4B896" stroke="none"></circle>
    </g>
</svg>