<svg xmlns="http://www.w3.org/2000/svg" viewBox="0 0 64 64" width="64" height="64" role="img" aria-label="punarvasu nakshatra">
  <title>Naksha · punarvasu</title>
  <defs>
    <radialGradient id="bg-7" cx="50%" cy="50%" r="50%">
      <stop offset="0%" stop-color="#162238" stop-opacity="0.9"></stop>
      <stop offset="100%" stop-color="#0B1220" stop-opacity="1"></stop>
    </radialGradient>
  </defs>
  <circle cx="32" cy="32" r="31" fill="url(#bg-7)" stroke="#D4B896" stroke-opacity="0.22" stroke-width="0.8"></circle>
  <circle cx="32" cy="32" r="31" fill="none" stroke="#F2EBDA" stroke-opacity="0.04" stroke-width="0.4"></circle>
  <circle cx="4.5" cy="43.6" r="0.4" fill="#F2EBDA" opacity="0.15"></circle><circle cx="19.9" cy="42.5" r="0.4" fill="#F2EBDA" opacity="0.10"></circle><circle cx="23.3" cy="18.4" r="0.4" fill="#F2EBDA" opacity="0.17"></circle><circle cx="17.7" cy="31.6" r="0.4" fill="#F2EBDA" opacity="0.19"></circle><circle cx="53.0" cy="32.2" r="0.4" fill="#F2EBDA" opacity="0.11"></circle><circle cx="22.0" cy="33.6" r="0.4" fill="#F2EBDA" opacity="0.19"></circle>
  <circle cx="8" cy="8" r="0.9" fill="#F2EBDA" opacity="0.95"></circle><circle cx="13" cy="11" r="0.65" fill="#F2EBDA" opacity="0.75"></circle><circle cx="18" cy="8" r="0.65" fill="#F2EBDA" opacity="0.75"></circle><circle cx="15" cy="13" r="0.65" fill="#F2EBDA" opacity="0.75"></circle><circle cx="20" cy="12" r="0.65" fill="#F2EBDA" opacity="0.75"></circle>
  
    <g stroke="#D4B896" stroke-width="1.1" fill="none" stroke-linecap="round" opacity="0.9">
      <path d="M 22 30 Q 18 42 22 54"></path>
      <line x1="22" y1="30" x2="22" y2="54"></line>
      <line x1="22" y1="42" x2="46" y2="42"></line>
      <path d="M 46 42 L 42 39 M 46 42 L 42 45"></path>
    </g>
</svg>