<svg xmlns="http://www.w3.org/2000/svg" viewBox="0 0 64 64" width="64" height="64" role="img" aria-label="pushya nakshatra">
  <title>Naksha · pushya</title>
  <defs>
    <radialGradient id="bg-8" cx="50%" cy="50%" r="50%">
      <stop offset="0%" stop-color="#162238" stop-opacity="0.9"></stop>
      <stop offset="100%" stop-color="#0B1220" stop-opacity="1"></stop>
    </radialGradient>
  </defs>
  <circle cx="32" cy="32" r="31" fill="url(#bg-8)" stroke="#D4B896" stroke-opacity="0.22" stroke-width="0.8"></circle>
  <circle cx="32" cy="32" r="31" fill="none" stroke="#F2EBDA" stroke-opacity="0.04" stroke-width="0.4"></circle>
  <circle cx="45.1" cy="15.3" r="0.4" fill="#F2EBDA" opacity="0.12"></circle><circle cx="32.0" cy="45.8" r="0.4" fill="#F2EBDA" opacity="0.16"></circle><circle cx="47.3" cy="59.6" r="0.4" fill="#F2EBDA" opacity="0.18"></circle><circle cx="27.5" cy="7.5" r="0.4" fill="#F2EBDA" opacity="0.23"></circle><circle cx="16.5" cy="57.6" r="0.4" fill="#F2EBDA" opacity="0.15"></circle><circle cx="57.6" cy="12.9" r="0.4" fill="#F2EBDA" opacity="0.23"></circle>
  <circle cx="9" cy="8" r="0.9" fill="#F2EBDA" opacity="0.95"></circle><circle cx="15" cy="12" r="0.65" fill="#F2EBDA" opacity="0.75"></circle><circle cx="19" cy="8" r="0.65" fill="#F2EBDA" opacity="0.75"></circle>
  
    <g stroke="#D4B896" stroke-width="1.0" fill="none" stroke-linecap="round" opacity="0.9">
      <circle cx="32" cy="42" r="2.5"></circle>
      <ellipse cx="32" cy="34" rx="3" ry="5" transform="rotate(0 32 34)"></ellipse>
      <ellipse cx="32" cy="50" rx="3" ry="5"></ellipse>
      <ellipse cx="24" cy="42" rx="5" ry="3"></ellipse>
      <ellipse cx="40" cy="42" rx="5" ry="3"></ellipse>
      <ellipse cx="26" cy="36" rx="4" ry="2.5" transform="rotate(-45 26 36)"></ellipse>
      <ellipse cx="38" cy="48" rx="4" ry="2.5" transform="rotate(-45 38 48)"></ellipse>
      <ellipse cx="38" cy="36" rx="4" ry="2.5" transform="rotate(45 38 36)"></ellipse>
      <ellipse cx="26" cy="48" rx="4" ry="2.5" transform="rotate(45 26 48)"></ellipse>
    </g>
</svg>