<svg xmlns="http://www.w3.org/2000/svg" viewBox="0 0 64 64" width="64" height="64" role="img" aria-label="ashlesha nakshatra">
  <title>Naksha · ashlesha</title>
  <defs>
    <radialGradient id="bg-9" cx="50%" cy="50%" r="50%">
      <stop offset="0%" stop-color="#162238" stop-opacity="0.9"></stop>
      <stop offset="100%" stop-color="#0B1220" stop-opacity="1"></stop>
    </radialGradient>
  </defs>
  <circle cx="32" cy="32" r="31" fill="url(#bg-9)" stroke="#D4B896" stroke-opacity="0.22" stroke-width="0.8"></circle>
  <circle cx="32" cy="32" r="31" fill="none" stroke="#F2EBDA" stroke-opacity="0.04" stroke-width="0.4"></circle>
  <circle cx="33.5" cy="28.7" r="0.4" fill="#F2EBDA" opacity="0.17"></circle><circle cx="10.1" cy="56.0" r="0.4" fill="#F2EBDA" opacity="0.17"></circle><circle cx="32.4" cy="45.8" r="0.4" fill="#F2EBDA" opacity="0.13"></circle><circle cx="52.0" cy="7.7" r="0.4" fill="#F2EBDA" opacity="0.22"></circle><circle cx="5.4" cy="5.1" r="0.4" fill="#F2EBDA" opacity="0.17"></circle><circle cx="20.1" cy="43.8" r="0.4" fill="#F2EBDA" opacity="0.21"></circle>
  <circle cx="8" cy="8" r="0.9" fill="#F2EBDA" opacity="0.95"></circle><circle cx="13" cy="11" r="0.65" fill="#F2EBDA" opacity="0.75"></circle><circle cx="18" cy="8" r="0.65" fill="#F2EBDA" opacity="0.75"></circle><circle cx="15" cy="13" r="0.65" fill="#F2EBDA" opacity="0.75"></circle><circle cx="20" cy="12" r="0.65" fill="#F2EBDA" opacity="0.75"></circle>
  
    <g stroke="#D4B896" stroke-width="1.2" fill="none" stroke-linecap="round" stroke-linejoin="round" opacity="0.9">
      <path d="M 20 52 Q 26 44 22 38 Q 18 32 26 30 Q 34 28 38 34 Q 42 40 36 44 Q 30 48 38 52"></path>
      <circle cx="40" cy="52.5" r="0.6" fill="#D4B896" stroke="none"></circle>
      <path d="M 40.5 53 L 43 54"></path>
    </g>
</svg>