<svg xmlns="http://www.w3.org/2000/svg" viewBox="0 0 64 64" width="64" height="64" role="img" aria-label="magha nakshatra">
  <title>Naksha · magha</title>
  <defs>
    <radialGradient id="bg-10" cx="50%" cy="50%" r="50%">
      <stop offset="0%" stop-color="#162238" stop-opacity="0.9"></stop>
      <stop offset="100%" stop-color="#0B1220" stop-opacity="1"></stop>
    </radialGradient>
  </defs>
  <circle cx="32" cy="32" r="31" fill="url(#bg-10)" stroke="#D4B896" stroke-opacity="0.22" stroke-width="0.8"></circle>
  <circle cx="32" cy="32" r="31" fill="none" stroke="#F2EBDA" stroke-opacity="0.04" stroke-width="0.4"></circle>
  <circle cx="33.5" cy="27.4" r="0.4" fill="#F2EBDA" opacity="0.21"></circle><circle cx="35.4" cy="33.5" r="0.4" fill="#F2EBDA" opacity="0.21"></circle><circle cx="29.9" cy="35.7" r="0.4" fill="#F2EBDA" opacity="0.15"></circle><circle cx="44.3" cy="37.2" r="0.4" fill="#F2EBDA" opacity="0.18"></circle><circle cx="53.6" cy="8.5" r="0.4" fill="#F2EBDA" opacity="0.12"></circle><circle cx="40.2" cy="21.9" r="0.4" fill="#F2EBDA" opacity="0.17"></circle>
  <circle cx="8" cy="8" r="0.9" fill="#F2EBDA" opacity="0.95"></circle><circle cx="13" cy="11" r="0.65" fill="#F2EBDA" opacity="0.75"></circle><circle cx="18" cy="8" r="0.65" fill="#F2EBDA" opacity="0.75"></circle><circle cx="15" cy="13" r="0.65" fill="#F2EBDA" opacity="0.75"></circle><circle cx="20" cy="12" r="0.65" fill="#F2EBDA" opacity="0.75"></circle>
  
    <g stroke="#D4B896" stroke-width="1.1" fill="none" stroke-linecap="round" stroke-linejoin="round" opacity="0.9">
      <path d="M 22 50 L 22 36 L 42 36 L 42 50"></path>
      <line x1="22" y1="44" x2="42" y2="44"></line>
      <line x1="22" y1="50" x2="20" y2="54"></line>
      <line x1="42" y1="50" x2="44" y2="54"></line>
      <line x1="22" y1="36" x2="22" y2="30"></line>
      <line x1="42" y1="36" x2="42" y2="30"></line>
    </g>
</svg>