<svg xmlns="http://www.w3.org/2000/svg" viewBox="0 0 64 64" width="64" height="64" role="img" aria-label="uttara-phalguni nakshatra">
  <title>Naksha · uttara-phalguni</title>
  <defs>
    <radialGradient id="bg-12" cx="50%" cy="50%" r="50%">
      <stop offset="0%" stop-color="#162238" stop-opacity="0.9"></stop>
      <stop offset="100%" stop-color="#0B1220" stop-opacity="1"></stop>
    </radialGradient>
  </defs>
  <circle cx="32" cy="32" r="31" fill="url(#bg-12)" stroke="#D4B896" stroke-opacity="0.22" stroke-width="0.8"></circle>
  <circle cx="32" cy="32" r="31" fill="none" stroke="#F2EBDA" stroke-opacity="0.04" stroke-width="0.4"></circle>
  <circle cx="12.1" cy="43.4" r="0.4" fill="#F2EBDA" opacity="0.11"></circle><circle cx="51.5" cy="23.1" r="0.4" fill="#F2EBDA" opacity="0.16"></circle><circle cx="33.4" cy="52.5" r="0.4" fill="#F2EBDA" opacity="0.23"></circle><circle cx="48.2" cy="33.4" r="0.4" fill="#F2EBDA" opacity="0.21"></circle><circle cx="20.4" cy="59.8" r="0.4" fill="#F2EBDA" opacity="0.22"></circle><circle cx="57.9" cy="36.4" r="0.4" fill="#F2EBDA" opacity="0.14"></circle>
  <circle cx="10" cy="9" r="0.9" fill="#F2EBDA" opacity="0.95"></circle><circle cx="18" cy="12" r="0.65" fill="#F2EBDA" opacity="0.75"></circle>
  
    <g stroke="#D4B896" stroke-width="1.1" fill="none" stroke-linecap="round" stroke-linejoin="round" opacity="0.9">
      <path d="M 20 40 L 44 40 L 44 48 L 20 48 Z"></path>
      <path d="M 20 40 L 20 34 L 26 34 L 26 40"></path>
      <path d="M 38 40 L 38 36 L 44 36"></path>
      <line x1="20" y1="48" x2="20" y2="52"></line>
      <line x1="44" y1="48" x2="44" y2="52"></line>
    </g>
</svg>