<svg xmlns="http://www.w3.org/2000/svg" viewBox="0 0 64 64" width="64" height="64" role="img" aria-label="hasta nakshatra">
  <title>Naksha · hasta</title>
  <defs>
    <radialGradient id="bg-13" cx="50%" cy="50%" r="50%">
      <stop offset="0%" stop-color="#162238" stop-opacity="0.9"></stop>
      <stop offset="100%" stop-color="#0B1220" stop-opacity="1"></stop>
    </radialGradient>
  </defs>
  <circle cx="32" cy="32" r="31" fill="url(#bg-13)" stroke="#D4B896" stroke-opacity="0.22" stroke-width="0.8"></circle>
  <circle cx="32" cy="32" r="31" fill="none" stroke="#F2EBDA" stroke-opacity="0.04" stroke-width="0.4"></circle>
  <circle cx="25.9" cy="44.9" r="0.4" fill="#F2EBDA" opacity="0.20"></circle><circle cx="55.5" cy="56.9" r="0.4" fill="#F2EBDA" opacity="0.16"></circle><circle cx="14.4" cy="54.9" r="0.4" fill="#F2EBDA" opacity="0.25"></circle><circle cx="59.8" cy="35.7" r="0.4" fill="#F2EBDA" opacity="0.15"></circle><circle cx="49.8" cy="13.6" r="0.4" fill="#F2EBDA" opacity="0.15"></circle><circle cx="36.3" cy="31.7" r="0.4" fill="#F2EBDA" opacity="0.21"></circle>
  <circle cx="8" cy="8" r="0.9" fill="#F2EBDA" opacity="0.95"></circle><circle cx="13" cy="11" r="0.65" fill="#F2EBDA" opacity="0.75"></circle><circle cx="18" cy="8" r="0.65" fill="#F2EBDA" opacity="0.75"></circle><circle cx="15" cy="13" r="0.65" fill="#F2EBDA" opacity="0.75"></circle><circle cx="20" cy="12" r="0.65" fill="#F2EBDA" opacity="0.75"></circle>
  
    <g stroke="#D4B896" stroke-width="1.0" fill="none" stroke-linecap="round" stroke-linejoin="round" opacity="0.9">
      <path d="M 26 54 L 26 42 Q 26 38 28 38 Q 30 38 30 42 L 30 34 Q 30 30 32 30 Q 34 30 34 34 L 34 36 Q 34 32 36 32 Q 38 32 38 36 L 38 40 Q 38 36 40 36 Q 42 36 42 40 L 42 48 Q 42 54 36 54 Z"></path>
    </g>
</svg>