<svg xmlns="http://www.w3.org/2000/svg" viewBox="0 0 64 64" width="64" height="64" role="img" aria-label="vishakha nakshatra">
  <title>Naksha · vishakha</title>
  <defs>
    <radialGradient id="bg-16" cx="50%" cy="50%" r="50%">
      <stop offset="0%" stop-color="#162238" stop-opacity="0.9"></stop>
      <stop offset="100%" stop-color="#0B1220" stop-opacity="1"></stop>
    </radialGradient>
  </defs>
  <circle cx="32" cy="32" r="31" fill="url(#bg-16)" stroke="#D4B896" stroke-opacity="0.22" stroke-width="0.8"></circle>
  <circle cx="32" cy="32" r="31" fill="none" stroke="#F2EBDA" stroke-opacity="0.04" stroke-width="0.4"></circle>
  <circle cx="46.4" cy="19.0" r="0.4" fill="#F2EBDA" opacity="0.20"></circle><circle cx="49.4" cy="57.4" r="0.4" fill="#F2EBDA" opacity="0.10"></circle><circle cx="25.9" cy="8.5" r="0.4" fill="#F2EBDA" opacity="0.20"></circle><circle cx="16.4" cy="40.3" r="0.4" fill="#F2EBDA" opacity="0.18"></circle><circle cx="36.2" cy="50.9" r="0.4" fill="#F2EBDA" opacity="0.11"></circle><circle cx="21.3" cy="19.4" r="0.4" fill="#F2EBDA" opacity="0.17"></circle>
  <circle cx="9" cy="8" r="0.9" fill="#F2EBDA" opacity="0.95"></circle><circle cx="14" cy="11" r="0.65" fill="#F2EBDA" opacity="0.75"></circle><circle cx="19" cy="8" r="0.65" fill="#F2EBDA" opacity="0.75"></circle><circle cx="16" cy="14" r="0.65" fill="#F2EBDA" opacity="0.75"></circle>
  
    <g stroke="#D4B896" stroke-width="1.1" fill="none" stroke-linecap="round" stroke-linejoin="round" opacity="0.9">
      <path d="M 22 52 L 22 40 Q 22 32 32 32 Q 42 32 42 40 L 42 52"></path>
      <line x1="20" y1="52" x2="44" y2="52"></line>
      <path d="M 28 52 L 28 42 Q 28 38 32 38 Q 36 38 36 42 L 36 52" opacity="0.55"></path>
    </g>
</svg>