<svg xmlns="http://www.w3.org/2000/svg" viewBox="0 0 64 64" width="64" height="64" role="img" aria-label="anuradha nakshatra">
  <title>Naksha · anuradha</title>
  <defs>
    <radialGradient id="bg-17" cx="50%" cy="50%" r="50%">
      <stop offset="0%" stop-color="#162238" stop-opacity="0.9"></stop>
      <stop offset="100%" stop-color="#0B1220" stop-opacity="1"></stop>
    </radialGradient>
  </defs>
  <circle cx="32" cy="32" r="31" fill="url(#bg-17)" stroke="#D4B896" stroke-opacity="0.22" stroke-width="0.8"></circle>
  <circle cx="32" cy="32" r="31" fill="none" stroke="#F2EBDA" stroke-opacity="0.04" stroke-width="0.4"></circle>
  <circle cx="44.6" cy="33.8" r="0.4" fill="#F2EBDA" opacity="0.15"></circle><circle cx="37.0" cy="5.3" r="0.4" fill="#F2EBDA" opacity="0.15"></circle><circle cx="31.5" cy="15.8" r="0.4" fill="#F2EBDA" opacity="0.16"></circle><circle cx="14.1" cy="25.3" r="0.4" fill="#F2EBDA" opacity="0.18"></circle><circle cx="25.1" cy="18.0" r="0.4" fill="#F2EBDA" opacity="0.19"></circle><circle cx="38.6" cy="44.3" r="0.4" fill="#F2EBDA" opacity="0.14"></circle>
  <circle cx="9" cy="8" r="0.9" fill="#F2EBDA" opacity="0.95"></circle><circle cx="14" cy="11" r="0.65" fill="#F2EBDA" opacity="0.75"></circle><circle cx="19" cy="8" r="0.65" fill="#F2EBDA" opacity="0.75"></circle><circle cx="16" cy="14" r="0.65" fill="#F2EBDA" opacity="0.75"></circle>
  
    <g stroke="#D4B896" stroke-width="1.0" fill="none" stroke-linecap="round" stroke-linejoin="round" opacity="0.9">
      <path d="M 20 50 Q 32 36 44 50"></path>
      <path d="M 24 50 Q 28 38 32 50"></path>
      <path d="M 32 50 Q 36 38 40 50"></path>
      <path d="M 32 50 Q 32 40 32 50" opacity="0"></path>
      <line x1="18" y1="50" x2="46" y2="50"></line>
    </g>
</svg>