<svg xmlns="http://www.w3.org/2000/svg" viewBox="0 0 64 64" width="64" height="64" role="img" aria-label="mula nakshatra">
  <title>Naksha · mula</title>
  <defs>
    <radialGradient id="bg-19" cx="50%" cy="50%" r="50%">
      <stop offset="0%" stop-color="#162238" stop-opacity="0.9"></stop>
      <stop offset="100%" stop-color="#0B1220" stop-opacity="1"></stop>
    </radialGradient>
  </defs>
  <circle cx="32" cy="32" r="31" fill="url(#bg-19)" stroke="#D4B896" stroke-opacity="0.22" stroke-width="0.8"></circle>
  <circle cx="32" cy="32" r="31" fill="none" stroke="#F2EBDA" stroke-opacity="0.04" stroke-width="0.4"></circle>
  <circle cx="50.6" cy="58.2" r="0.4" fill="#F2EBDA" opacity="0.14"></circle><circle cx="24.8" cy="13.5" r="0.4" fill="#F2EBDA" opacity="0.11"></circle><circle cx="53.2" cy="31.4" r="0.4" fill="#F2EBDA" opacity="0.13"></circle><circle cx="46.6" cy="49.1" r="0.4" fill="#F2EBDA" opacity="0.18"></circle><circle cx="40.6" cy="14.2" r="0.4" fill="#F2EBDA" opacity="0.13"></circle><circle cx="47.1" cy="18.7" r="0.4" fill="#F2EBDA" opacity="0.23"></circle>
  <circle cx="8" cy="8" r="0.9" fill="#F2EBDA" opacity="0.95"></circle><circle cx="13" cy="11" r="0.65" fill="#F2EBDA" opacity="0.75"></circle><circle cx="18" cy="8" r="0.65" fill="#F2EBDA" opacity="0.75"></circle><circle cx="15" cy="13" r="0.65" fill="#F2EBDA" opacity="0.75"></circle><circle cx="20" cy="12" r="0.65" fill="#F2EBDA" opacity="0.75"></circle>
  
    <g stroke="#D4B896" stroke-width="1.0" fill="none" stroke-linecap="round" stroke-linejoin="round" opacity="0.9">
      <line x1="32" y1="30" x2="32" y2="42"></line>
      <path d="M 32 42 Q 28 46 24 50 Q 22 52 22 54"></path>
      <path d="M 32 42 Q 36 46 40 50 Q 42 52 42 54"></path>
      <path d="M 32 42 L 32 54"></path>
      <path d="M 32 46 Q 28 48 28 52"></path>
      <path d="M 32 46 Q 36 48 36 52"></path>
    </g>
</svg>