<svg xmlns="http://www.w3.org/2000/svg" viewBox="0 0 64 64" width="64" height="64" role="img" aria-label="uttara-ashadha nakshatra">
  <title>Naksha · uttara-ashadha</title>
  <defs>
    <radialGradient id="bg-21" cx="50%" cy="50%" r="50%">
      <stop offset="0%" stop-color="#162238" stop-opacity="0.9"></stop>
      <stop offset="100%" stop-color="#0B1220" stop-opacity="1"></stop>
    </radialGradient>
  </defs>
  <circle cx="32" cy="32" r="31" fill="url(#bg-21)" stroke="#D4B896" stroke-opacity="0.22" stroke-width="0.8"></circle>
  <circle cx="32" cy="32" r="31" fill="none" stroke="#F2EBDA" stroke-opacity="0.04" stroke-width="0.4"></circle>
  <circle cx="46.5" cy="18.9" r="0.4" fill="#F2EBDA" opacity="0.21"></circle><circle cx="20.7" cy="47.4" r="0.4" fill="#F2EBDA" opacity="0.14"></circle><circle cx="54.6" cy="39.2" r="0.4" fill="#F2EBDA" opacity="0.11"></circle><circle cx="9.8" cy="24.6" r="0.4" fill="#F2EBDA" opacity="0.19"></circle><circle cx="33.2" cy="55.2" r="0.4" fill="#F2EBDA" opacity="0.14"></circle><circle cx="26.2" cy="6.5" r="0.4" fill="#F2EBDA" opacity="0.20"></circle>
  <circle cx="7" cy="8" r="0.9" fill="#F2EBDA" opacity="0.95"></circle><circle cx="11" cy="10" r="0.65" fill="#F2EBDA" opacity="0.75"></circle><circle cx="15" cy="8" r="0.65" fill="#F2EBDA" opacity="0.75"></circle><circle cx="19" cy="10" r="0.65" fill="#F2EBDA" opacity="0.75"></circle><circle cx="9" cy="12" r="0.65" fill="#F2EBDA" opacity="0.75"></circle><circle cx="13" cy="13" r="0.65" fill="#F2EBDA" opacity="0.75"></circle><circle cx="17" cy="12" r="0.65" fill="#F2EBDA" opacity="0.75"></circle><circle cx="20" cy="13" r="0.65" fill="#F2EBDA" opacity="0.75"></circle>
  
    <g stroke="#D4B896" stroke-width="1.2" fill="none" stroke-linecap="round" stroke-linejoin="round" opacity="0.9">
      <path d="M 22 32 Q 38 32 44 44 Q 46 52 38 54 Q 30 52 26 44 Q 22 36 22 32 Z"></path>
    </g>
</svg>