<svg xmlns="http://www.w3.org/2000/svg" viewBox="0 0 64 64" width="64" height="64" role="img" aria-label="shravana nakshatra">
  <title>Naksha · shravana</title>
  <defs>
    <radialGradient id="bg-22" cx="50%" cy="50%" r="50%">
      <stop offset="0%" stop-color="#162238" stop-opacity="0.9"></stop>
      <stop offset="100%" stop-color="#0B1220" stop-opacity="1"></stop>
    </radialGradient>
  </defs>
  <circle cx="32" cy="32" r="31" fill="url(#bg-22)" stroke="#D4B896" stroke-opacity="0.22" stroke-width="0.8"></circle>
  <circle cx="32" cy="32" r="31" fill="none" stroke="#F2EBDA" stroke-opacity="0.04" stroke-width="0.4"></circle>
  <circle cx="16.1" cy="27.0" r="0.4" fill="#F2EBDA" opacity="0.19"></circle><circle cx="51.5" cy="58.9" r="0.4" fill="#F2EBDA" opacity="0.18"></circle><circle cx="14.9" cy="24.6" r="0.4" fill="#F2EBDA" opacity="0.20"></circle><circle cx="59.6" cy="15.3" r="0.4" fill="#F2EBDA" opacity="0.25"></circle><circle cx="46.5" cy="29.1" r="0.4" fill="#F2EBDA" opacity="0.25"></circle><circle cx="18.5" cy="45.4" r="0.4" fill="#F2EBDA" opacity="0.20"></circle>
  <circle cx="9" cy="8" r="0.9" fill="#F2EBDA" opacity="0.95"></circle><circle cx="15" cy="12" r="0.65" fill="#F2EBDA" opacity="0.75"></circle><circle cx="19" cy="8" r="0.65" fill="#F2EBDA" opacity="0.75"></circle>
  
    <g stroke="#D4B896" stroke-width="1.1" fill="none" stroke-linecap="round" stroke-linejoin="round" opacity="0.9">
      <path d="M 28 32 Q 38 32 40 42 Q 40 50 34 52 Q 30 52 30 48 Q 30 44 33 44 Q 36 44 36 41"></path>
    </g>
</svg>