<svg xmlns="http://www.w3.org/2000/svg" viewBox="0 0 64 64" width="64" height="64" role="img" aria-label="shatabhisha nakshatra">
  <title>Naksha · shatabhisha</title>
  <defs>
    <radialGradient id="bg-24" cx="50%" cy="50%" r="50%">
      <stop offset="0%" stop-color="#162238" stop-opacity="0.9"></stop>
      <stop offset="100%" stop-color="#0B1220" stop-opacity="1"></stop>
    </radialGradient>
  </defs>
  <circle cx="32" cy="32" r="31" fill="url(#bg-24)" stroke="#D4B896" stroke-opacity="0.22" stroke-width="0.8"></circle>
  <circle cx="32" cy="32" r="31" fill="none" stroke="#F2EBDA" stroke-opacity="0.04" stroke-width="0.4"></circle>
  <circle cx="22.7" cy="56.3" r="0.4" fill="#F2EBDA" opacity="0.25"></circle><circle cx="26.5" cy="40.2" r="0.4" fill="#F2EBDA" opacity="0.11"></circle><circle cx="44.8" cy="26.2" r="0.4" fill="#F2EBDA" opacity="0.11"></circle><circle cx="21.4" cy="32.0" r="0.4" fill="#F2EBDA" opacity="0.22"></circle><circle cx="54.2" cy="8.8" r="0.4" fill="#F2EBDA" opacity="0.11"></circle><circle cx="38.8" cy="39.9" r="0.4" fill="#F2EBDA" opacity="0.14"></circle>
  <circle cx="14.6" cy="15.2" r="0.55" fill="#F2EBDA" opacity="0.59"></circle><circle cx="22.8" cy="17.3" r="0.55" fill="#F2EBDA" opacity="0.92"></circle><circle cx="20.0" cy="8.3" r="0.55" fill="#F2EBDA" opacity="0.67"></circle><circle cx="22.1" cy="8.2" r="0.55" fill="#F2EBDA" opacity="0.86"></circle><circle cx="10.1" cy="13.8" r="0.55" fill="#F2EBDA" opacity="0.64"></circle><circle cx="15.4" cy="8.3" r="0.55" fill="#F2EBDA" opacity="0.70"></circle><circle cx="15.5" cy="17.5" r="0.55" fill="#F2EBDA" opacity="0.95"></circle><circle cx="23.7" cy="12.7" r="0.55" fill="#F2EBDA" opacity="0.79"></circle><circle cx="11.3" cy="11.6" r="0.55" fill="#F2EBDA" opacity="0.74"></circle><circle cx="11.5" cy="12.1" r="0.55" fill="#F2EBDA" opacity="0.56"></circle><circle cx="12.9" cy="13.6" r="0.55" fill="#F2EBDA" opacity="0.86"></circle><circle cx="12.7" cy="11.7" r="0.55" fill="#F2EBDA" opacity="0.60"></circle><circle cx="11.0" cy="14.0" r="0.55" fill="#F2EBDA" opacity="0.74"></circle><circle cx="22.2" cy="12.3" r="0.55" fill="#F2EBDA" opacity="0.78"></circle><circle cx="10.1" cy="15.1" r="0.55" fill="#F2EBDA" opacity="0.57"></circle><circle cx="20.8" cy="11.6" r="0.55" fill="#F2EBDA" opacity="0.58"></circle><circle cx="13.2" cy="17.1" r="0.55" fill="#F2EBDA" opacity="0.78"></circle><circle cx="17.3" cy="16.9" r="0.55" fill="#F2EBDA" opacity="0.75"></circle><circle cx="23.9" cy="9.2" r="0.55" fill="#F2EBDA" opacity="0.68"></circle><circle cx="19.6" cy="11.3" r="0.55" fill="#F2EBDA" opacity="0.89"></circle><circle cx="20.1" cy="9.0" r="0.55" fill="#F2EBDA" opacity="0.86"></circle><circle cx="23.0" cy="17.4" r="0.55" fill="#F2EBDA" opacity="0.75"></circle><circle cx="10.5" cy="10.9" r="0.55" fill="#F2EBDA" opacity="0.88"></circle><circle cx="10.3" cy="15.8" r="0.55" fill="#F2EBDA" opacity="0.68"></circle>
  
    <g stroke="#D4B896" stroke-width="1.0" fill="none" opacity="0.9">
      <circle cx="32" cy="42" r="10"></circle>
      <circle cx="32" cy="42" r="13" stroke-dasharray="1 2" opacity="0.5"></circle>
    </g>
</svg>