<svg xmlns="http://www.w3.org/2000/svg" viewBox="0 0 64 64" width="64" height="64" role="img" aria-label="purva-bhadrapada nakshatra">
  <title>Naksha · purva-bhadrapada</title>
  <defs>
    <radialGradient id="bg-25" cx="50%" cy="50%" r="50%">
      <stop offset="0%" stop-color="#162238" stop-opacity="0.9"></stop>
      <stop offset="100%" stop-color="#0B1220" stop-opacity="1"></stop>
    </radialGradient>
  </defs>
  <circle cx="32" cy="32" r="31" fill="url(#bg-25)" stroke="#D4B896" stroke-opacity="0.22" stroke-width="0.8"></circle>
  <circle cx="32" cy="32" r="31" fill="none" stroke="#F2EBDA" stroke-opacity="0.04" stroke-width="0.4"></circle>
  <circle cx="9.2" cy="39.5" r="0.4" fill="#F2EBDA" opacity="0.10"></circle><circle cx="40.3" cy="59.7" r="0.4" fill="#F2EBDA" opacity="0.16"></circle><circle cx="27.9" cy="6.1" r="0.4" fill="#F2EBDA" opacity="0.19"></circle><circle cx="46.3" cy="53.1" r="0.4" fill="#F2EBDA" opacity="0.12"></circle><circle cx="45.7" cy="28.1" r="0.4" fill="#F2EBDA" opacity="0.22"></circle><circle cx="19.8" cy="18.0" r="0.4" fill="#F2EBDA" opacity="0.18"></circle>
  <circle cx="10" cy="9" r="0.9" fill="#F2EBDA" opacity="0.95"></circle><circle cx="18" cy="12" r="0.65" fill="#F2EBDA" opacity="0.75"></circle>
  
    <g stroke="#D4B896" stroke-width="1.1" fill="none" stroke-linecap="round" stroke-linejoin="round" opacity="0.9">
      <line x1="32" y1="30" x2="32" y2="48"></line>
      <path d="M 30 48 L 32 52 L 34 48 Z"></path>
      <line x1="28" y1="48" x2="36" y2="48"></line>
      <line x1="29" y1="46" x2="35" y2="46"></line>
      <line x1="32" y1="32" x2="30" y2="34"></line>
      <line x1="32" y1="32" x2="34" y2="34"></line>
    </g>
</svg>