<svg xmlns="http://www.w3.org/2000/svg" viewBox="0 0 64 64" width="64" height="64" role="img" aria-label="uttara-bhadrapada nakshatra">
  <title>Naksha · uttara-bhadrapada</title>
  <defs>
    <radialGradient id="bg-26" cx="50%" cy="50%" r="50%">
      <stop offset="0%" stop-color="#162238" stop-opacity="0.9"></stop>
      <stop offset="100%" stop-color="#0B1220" stop-opacity="1"></stop>
    </radialGradient>
  </defs>
  <circle cx="32" cy="32" r="31" fill="url(#bg-26)" stroke="#D4B896" stroke-opacity="0.22" stroke-width="0.8"></circle>
  <circle cx="32" cy="32" r="31" fill="none" stroke="#F2EBDA" stroke-opacity="0.04" stroke-width="0.4"></circle>
  <circle cx="53.4" cy="49.1" r="0.4" fill="#F2EBDA" opacity="0.23"></circle><circle cx="46.7" cy="41.9" r="0.4" fill="#F2EBDA" opacity="0.20"></circle><circle cx="40.1" cy="34.8" r="0.4" fill="#F2EBDA" opacity="0.18"></circle><circle cx="33.5" cy="27.6" r="0.4" fill="#F2EBDA" opacity="0.16"></circle><circle cx="26.8" cy="20.4" r="0.4" fill="#F2EBDA" opacity="0.13"></circle><circle cx="20.2" cy="13.1" r="0.4" fill="#F2EBDA" opacity="0.11"></circle>
  <circle cx="10" cy="9" r="0.9" fill="#F2EBDA" opacity="0.95"></circle><circle cx="18" cy="12" r="0.65" fill="#F2EBDA" opacity="0.75"></circle>
  
    <g stroke="#D4B896" stroke-width="1.1" fill="none" stroke-linecap="round" stroke-linejoin="round" opacity="0.9">
      <circle cx="27" cy="38" r="3"></circle>
      <circle cx="37" cy="38" r="3"></circle>
      <path d="M 22 52 Q 22 44 27 44 Q 32 44 32 52"></path>
      <path d="M 32 52 Q 32 44 37 44 Q 42 44 42 52"></path>
    </g>
</svg>