<svg xmlns="http://www.w3.org/2000/svg" viewBox="0 0 64 64" width="64" height="64" role="img" aria-label="revati nakshatra">
  <title>Naksha · revati</title>
  <defs>
    <radialGradient id="bg-27" cx="50%" cy="50%" r="50%">
      <stop offset="0%" stop-color="#162238" stop-opacity="0.9"></stop>
      <stop offset="100%" stop-color="#0B1220" stop-opacity="1"></stop>
    </radialGradient>
  </defs>
  <circle cx="32" cy="32" r="31" fill="url(#bg-27)" stroke="#D4B896" stroke-opacity="0.22" stroke-width="0.8"></circle>
  <circle cx="32" cy="32" r="31" fill="none" stroke="#F2EBDA" stroke-opacity="0.04" stroke-width="0.4"></circle>
  <circle cx="32.3" cy="30.2" r="0.4" fill="#F2EBDA" opacity="0.13"></circle><circle cx="35.8" cy="32.4" r="0.4" fill="#F2EBDA" opacity="0.16"></circle><circle cx="49.8" cy="47.0" r="0.4" fill="#F2EBDA" opacity="0.14"></circle><circle cx="48.9" cy="57.0" r="0.4" fill="#F2EBDA" opacity="0.12"></circle><circle cx="29.1" cy="14.0" r="0.4" fill="#F2EBDA" opacity="0.17"></circle><circle cx="6.9" cy="11.2" r="0.4" fill="#F2EBDA" opacity="0.12"></circle>
  <circle cx="10.5" cy="8.4" r="0.55" fill="#F2EBDA" opacity="0.94"></circle><circle cx="17.0" cy="9.7" r="0.55" fill="#F2EBDA" opacity="0.73"></circle><circle cx="17.4" cy="8.7" r="0.55" fill="#F2EBDA" opacity="0.69"></circle><circle cx="14.9" cy="13.5" r="0.55" fill="#F2EBDA" opacity="0.63"></circle><circle cx="20.6" cy="9.9" r="0.55" fill="#F2EBDA" opacity="0.70"></circle><circle cx="19.0" cy="16.2" r="0.55" fill="#F2EBDA" opacity="0.62"></circle><circle cx="13.0" cy="17.5" r="0.55" fill="#F2EBDA" opacity="0.69"></circle><circle cx="23.9" cy="14.8" r="0.55" fill="#F2EBDA" opacity="0.87"></circle><circle cx="18.5" cy="16.3" r="0.55" fill="#F2EBDA" opacity="0.63"></circle><circle cx="15.0" cy="11.1" r="0.55" fill="#F2EBDA" opacity="0.57"></circle><circle cx="22.4" cy="11.5" r="0.55" fill="#F2EBDA" opacity="0.69"></circle><circle cx="18.3" cy="16.8" r="0.55" fill="#F2EBDA" opacity="0.59"></circle><circle cx="23.1" cy="8.6" r="0.55" fill="#F2EBDA" opacity="0.58"></circle><circle cx="18.9" cy="13.5" r="0.55" fill="#F2EBDA" opacity="0.95"></circle><circle cx="16.0" cy="8.4" r="0.55" fill="#F2EBDA" opacity="0.73"></circle><circle cx="12.2" cy="16.6" r="0.55" fill="#F2EBDA" opacity="0.66"></circle><circle cx="17.2" cy="16.5" r="0.55" fill="#F2EBDA" opacity="0.82"></circle><circle cx="14.3" cy="12.5" r="0.55" fill="#F2EBDA" opacity="0.83"></circle><circle cx="19.8" cy="15.8" r="0.55" fill="#F2EBDA" opacity="0.87"></circle><circle cx="10.6" cy="13.5" r="0.55" fill="#F2EBDA" opacity="0.95"></circle><circle cx="10.5" cy="17.8" r="0.55" fill="#F2EBDA" opacity="0.88"></circle><circle cx="12.3" cy="12.5" r="0.55" fill="#F2EBDA" opacity="0.65"></circle><circle cx="11.0" cy="11.5" r="0.55" fill="#F2EBDA" opacity="0.66"></circle><circle cx="17.7" cy="9.9" r="0.55" fill="#F2EBDA" opacity="0.57"></circle>
  
    <g stroke="#D4B896" stroke-width="1.1" fill="none" stroke-linecap="round" stroke-linejoin="round" opacity="0.9">
      <path d="M 22 42 Q 30 34 40 42 Q 30 50 22 42 Z"></path>
      <path d="M 40 42 L 46 38 L 44 42 L 46 46 Z"></path>
      <circle cx="27" cy="41" r="0.7" fill="#D4B896" stroke="none"></circle>
    </g>
</svg>